PathFileType	4	(X/Y/Z)	OpenSim_Sub11_EMGPreOp_Accel.trc
DataRate	CameraRate	NumFrames	NumMarkers	Units	OrigDataRate	OrigDataStartFrame	OrigNumFrames
100	100	17	8	m	100	2943	5885
Frame#	Time	torso_imu_offset_imu	pelvis_imu_offset_imu	tibia_r_imu_offset_imu	femur_r_imu_offset_imu	tibia_l_imu_offset_imu	femur_l_imu_offset_imu	toes_r_imu_offset_imu	toes_l_imu_offset_imu
				X1	Y1	Z1	X2	Y2	Z2	X3	Y3	Z3	X4	Y4	Z4	X5	Y5	Z5	X6	Y6	Z6	X7	Y7	Z7	X8		Y8	Z8	

2943	29.42000000	8.64520362	0.89587016	4.16853440	9.27811405	0.69983753	5.14949000	10.57391154	-0.04056710	3.40673217	10.37098342	0.93974398	-2.65174349	10.10111555	1.82877194	0.51480972	10.22653220	0.37482893	-1.01575132	4.08572588	-0.30008765	9.88806107	6.22329753	0.13298598	7.83472733
2944	29.43000000	8.70296279	0.93023631	4.14938586	9.12781599	0.66898187	4.94573210	10.52882842	-0.42200092	4.03254511	10.63737143	1.05996580	-2.22932747	10.29776605	0.90346662	0.42742628	10.15599209	0.64789304	-0.97657680	4.70218671	-1.92687275	8.58430017	6.19709238	0.43446409	7.96570384
2945	29.44000000	8.73541344	0.92461803	4.04519931	8.90434311	0.53897519	4.81418952	10.23091768	-0.72320105	3.42861738	10.62209191	0.88841832	-1.73263309	10.18302961	-0.21649676	0.61976734	9.90494092	1.08597608	-1.14239193	4.35566557	-0.26749950	9.52266477	5.85496390	0.34807178	8.06335459
2946	29.45000000	8.79901377	0.90702268	3.91751004	8.79657888	0.38320563	4.73715069	10.25013447	-0.84864219	2.76583981	10.53792423	0.67992189	-1.29018628	9.97593973	-1.24462064	0.78872809	9.63571085	1.36864061	-1.41442390	4.48266615	0.94778613	10.12214905	5.87295512	0.18419646	8.00550952
2947	29.46000000	8.91840783	0.83501505	3.80737739	8.75946200	0.31041018	4.67798808	10.75666201	-0.84929409	2.86297440	10.35874228	0.47321036	-1.02162615	9.84131041	-1.88251582	0.80253930	9.50136767	1.65820484	-1.62703127	4.23222044	0.13323696	9.58232467	6.32204041	0.12363106	7.67579254
2948	29.47000000	9.09590975	0.74059009	3.77990079	8.68836502	0.26051846	4.55707729	11.26648132	-0.86840838	3.11111754	10.13943583	0.25158828	-1.00739497	9.74755875	-2.29330543	0.62858235	9.54603974	1.74071302	-1.85145687	4.44357107	-0.00560382	9.79451846	6.02318253	-0.14078955	7.78716855
2949	29.48000000	9.25181657	0.74350819	3.68184402	8.62547830	0.28487306	4.51486993	11.20893373	-0.96119885	4.32930891	10.15297135	-0.03357255	-0.95038845	9.73055919	-2.50393233	0.53620049	9.56138377	1.83573168	-2.00847162	4.54605170	-1.36904938	9.49814632	5.80403706	0.27911693	8.16045142
2950	29.49000000	9.32878007	0.74154106	3.60605059	8.67712128	0.46423177	4.55473194	10.65137422	-0.54993891	6.22793528	10.28107670	-0.29843516	-0.72950214	9.71626080	-2.21052044	0.58768304	9.44452209	1.97261129	-1.97484502	5.15848647	-3.60242924	8.05600578	5.72885002	0.24779104	8.01125882
2951	29.50000000	9.32519557	0.76038312	3.57867618	8.78552576	0.41020980	4.48104674	9.74790677	0.69782560	5.01745245	10.27277016	-0.49364768	-0.60861939	9.71728658	-1.59913292	0.70692170	9.46065437	1.91015713	-1.71420912	5.69747007	-0.99234040	8.78714438	6.08551125	0.06453353	7.84845297
2952	29.51000000	9.26457530	0.75011105	3.56067126	8.71256046	0.21443673	4.66621373	8.95072395	1.70589873	3.33286275	10.46369667	-1.03122282	-0.61244117	9.79186918	-1.03060875	0.74407567	9.59732288	1.78627808	-1.51331538	4.68228653	0.80068181	9.99113618	5.88126939	0.07878117	7.88851817
2953	29.52000000	9.13533247	0.74035046	3.55355829	8.68122757	0.11674716	4.69383181	9.53808170	2.67424542	3.42364097	10.24905563	-1.17862638	-0.69053619	9.96305970	-0.69447954	0.55796448	9.57966459	1.89198939	-1.45997187	5.00780152	0.07683723	9.94355519	6.06360958	0.00224706	7.74481175
2954	29.53000000	9.01900411	0.70161500	3.45188372	8.65778303	0.11769664	4.56274043	10.97512831	3.39946648	4.10908630	9.83860078	-1.43501670	-0.69042339	10.17801409	-0.43096817	0.48807554	9.36968405	1.92624150	-1.36120002	4.63539148	-2.07548328	9.86992208	6.12671263	0.14104641	7.68321306
2955	29.54000000	8.84859398	0.68445030	3.43652059	8.63011673	0.09364048	4.42287108	11.93343663	4.06008551	3.81230594	10.11617336	-1.79087413	-0.86453908	10.18119351	-0.26770125	0.57125502	9.31656469	1.84327564	-1.38754622	6.30100849	-2.76099611	9.35829246	5.83465392	0.08774961	7.85147452
2956	29.55000000	8.73044971	0.66670253	3.43243766	8.54539394	0.06353457	4.32039197	11.98995634	4.80013539	3.24291448	10.47843557	-1.82854988	-1.30712987	9.96534543	-0.23032053	0.60675321	9.35854640	1.71708495	-1.54495547	6.79654518	-1.58122959	9.47663367	5.61915697	0.23947247	8.14927314
2957	29.56000000	8.61591450	0.74378588	3.48787680	8.55531957	0.07584797	4.31136291	11.29229340	5.61307593	3.26970871	10.58770401	-1.92183331	-1.75663555	9.67788401	-0.15502466	0.68299650	9.40974799	1.48709934	-1.66011654	7.84973468	-1.03422379	9.14571215	5.63181375	0.20349355	8.02278889
2958	29.57000000	8.61632948	0.71800757	3.52779926	8.51754789	0.07670603	4.25250988	9.92937389	6.19821258	2.80881647	10.38947196	-1.70864436	-1.95617057	9.59877372	-0.01455029	0.75129424	9.48745209	1.48633317	-1.65829716	10.03119520	-2.84682858	8.07566494	6.30301807	-0.00501121	7.59400431
2959	29.58000000	8.68535993	0.66367473	3.45913911	8.58074792	0.09574807	4.22174553	8.30835763	6.07107641	2.35274478	10.10143168	-1.23452691	-2.00551486	9.67147816	0.09876830	0.71339540	9.60143988	1.35850857	-1.64522970	8.63261398	-5.98008850	5.18535720	5.82490323	-0.06366159	7.85807639
